<?xml version="1.0" encoding="UTF-8"?>
<svg id="_图层_1" data-name="图层 1" xmlns="http://www.w3.org/2000/svg" viewBox="0 0 843.33 839.06">
  <defs>
    <style>
      .cls-1 {
        fill: #e07a86;
      }

      .cls-2 {
        fill: #4d4d4d;
      }

      .cls-3 {
        fill: #040000;
      }

      .cls-4 {
        fill: #fff;
      }

      .cls-5 {
        fill: #e7e6e5;
      }
    </style>
  </defs>
  <path class="cls-2" d="M766.15,1.11c-21.21-3.49-42.91,1.46-61.46,12.09-44.05,25.24-140.92,94.29-165.76,224.25,0,0-16.71-5.18-42.45-10.12-11.99,35.74-69.05,224.43,34.95,300.44h-216.76c107.23-78.38,43.25-276.51,33.98-303.28-15.79,3.35-31.15,8.28-45.38,15.33,0,0-42.92-254.77-235.04-232.24-18.77,2.2-36.01,12.11-45.89,27.87C4.13,64.53-13.67,125.53,15.33,246.96c0,0-10.95,102.33,59.62,164.2,0,0,29.94,39.74,14.64,121.18-3.2,17.03-5.48,34.19-5.9,51.5-2.19,89.31,16.58,315.23,272.33,240.2,0,0,81.52-19.04,120.46,0,0,0,215.29,71.09,266.11-113.35,6.18-22.44,8.56-45.7,8.21-68.94-.25-16.66-.72-40.29-1.6-64.19-2.14-58.23,10.29-115.97,35.57-168.73,18.69-38.99,37.15-85.45,40.91-123.02,0,0,66.8-263.95-59.53-284.72Z"/>
  <path class="cls-5" d="M633.03,710.22c-18-17.89-32.1-50.95-40.76-75.53-4.99-14.17-16.52-38.34-30.1-63.09-20.24-36.91-49.19-66.89-83.74-86.69-3.25-1.86-6.46-3.59-9.64-5.18-23.53-11.78-51.45-13.66-76.63-5.15-7.27,2.45-13.32,4.92-17.98,7.33-36.25,18.75-66.82,48.07-88.38,84.8-14.36,24.47-27.14,49.41-32.55,63.52-9.33,24.35-24.34,57.03-42.8,74.42-2.11,1.97-2.95,4.88-2.21,7.57,3.99,14.74,34.52,32.14,69.41,33.37,36.16,1.31,101.76-13.55,145.25-123.24,40.07,109.79,104.39,127.02,140.78,127.02.35,0,.69,0,1.04,0,34.91-.31,65.89-16.91,70.27-31.48.84-2.7.08-5.65-1.97-7.67Z"/>
  <g>
    <g>
      <ellipse class="cls-3" cx="622.59" cy="484.93" rx="83.28" ry="81.44"/>
      <ellipse class="cls-4" cx="622.59" cy="484.93" rx="70.03" ry="68.48"/>
      <ellipse class="cls-3" cx="622.59" cy="484.93" rx="60.57" ry="59.23"/>
      <ellipse class="cls-4" cx="606.62" cy="507.49" rx="20.94" ry="20.48"/>
      <ellipse class="cls-4" cx="643.65" cy="465.15" rx="12.07" ry="11.8"/>
    </g>
    <g>
      <ellipse class="cls-3" cx="220.73" cy="484.93" rx="83.28" ry="81.44"/>
      <ellipse class="cls-4" cx="220.73" cy="484.93" rx="70.03" ry="68.48"/>
      <ellipse class="cls-3" cx="220.73" cy="484.93" rx="60.57" ry="59.23"/>
      <ellipse class="cls-4" cx="204.76" cy="507.49" rx="20.94" ry="20.48"/>
      <ellipse class="cls-4" cx="241.79" cy="465.15" rx="12.07" ry="11.8"/>
    </g>
  </g>
  <g>
    <path class="cls-1" d="M107.67,381.81s-70.57-42.84-51.1-138.02c0,0-32.9-95.24-20.63-159.52,6.38-33.41,41.65-53.58,74.54-42.59,51.21,17.11,135.42,66.62,153.75,208.46,0,0-89.23,7.14-156.55,131.68Z"/>
    <path class="cls-1" d="M737.28,381.02s70.57-42.84,51.1-138.02c0,0,32.9-95.24,20.63-159.52-6.38-33.41-41.65-53.58-74.54-42.59-51.21,17.11-135.42,66.62-153.75,208.46,0,0,89.23,7.14,156.55,131.68Z"/>
  </g>
  <path class="cls-5" d="M314.68,527.77h216.76c-104-76.01-46.94-264.7-34.95-300.44-37.88-7.26-95.32-13.97-147.82-2.84,9.27,26.77,73.25,224.9-33.98,303.28Z"/>
  <path class="cls-5" d="M541.79,738.27c-2.62-2.6-6.91-2.63-9.56-.06-.3.29-.6.55-.89.83,3.24-5.16,6.37-10.63,9.23-16.73,0,0-29.2,33.91-60.84-30.94,0,0-10.34,45.21-19.47,48.78,0,0-41.37,31.53-75.44,4.16l-18.86-53.54-65.7,3.57s.26,19.46,5.81,37.87c-2.22-.74-4.75-.42-6.63,1.2-2.8,2.42-3.06,6.59-.59,9.32,2.05,2.27,51.05,55.64,121.21,57.99,1.58.05,3.17.08,4.75.08,40.99,0,80.3-17.88,116.91-53.21,2.66-2.56,2.69-6.75.07-9.35Z"/>
  <path class="cls-1" d="M478.06,695.42c-.58-3.61-4.04-6.06-7.74-5.48-.88.14-1.68.45-2.4.88l-47.2-76.78s-30.32,54.79-45.84,79.42c-.93-.65-1.97-1.16-3.19-1.28-3.74-.35-7.02,2.29-7.41,5.91-.12,1.16-2.74,28.55,14.5,47.85,10.12,11.34,24.72,17.4,43.75,18.03,1.16-.02,28.47-.72,44.91-19.91,10.35-12.09,13.92-28.45,10.62-48.63Z"/>
  <g>
    <path class="cls-5" d="M634.89,706.19c-18-17.89-32.1-50.95-40.76-75.53-4.99-14.17-16.52-38.34-30.1-63.09-20.24-36.91-49.19-66.89-83.74-86.69-3.25-1.86-6.46-3.59-9.64-5.18-23.53-11.78-51.45-13.66-76.63-5.15-7.27,2.45-13.32,4.92-17.98,7.33-36.25,18.75-66.82,48.07-88.38,84.8-14.36,24.47-27.14,49.41-32.55,63.52-9.33,24.35-24.34,57.03-42.8,74.42-2.11,1.97-2.95,4.88-2.21,7.57,3.99,14.74,34.52,32.14,69.41,33.37,36.16,1.31,100.29-13.62,143.77-123.31,40.07,109.79,105.87,127.09,142.26,127.09.35,0,.69,0,1.04,0,34.91-.31,65.89-16.91,70.27-31.48.84-2.7.08-5.65-1.97-7.67Z"/>
    <g>
      <g>
        <ellipse class="cls-3" cx="479.47" cy="626.51" rx="9.31" ry="9.1"/>
        <ellipse class="cls-3" cx="504.65" cy="660.05" rx="9.31" ry="9.1"/>
        <ellipse class="cls-3" cx="517.19" cy="614.61" rx="9.31" ry="9.1"/>
        <ellipse class="cls-3" cx="542.37" cy="648.15" rx="9.31" ry="9.1"/>
      </g>
      <g>
        <ellipse class="cls-3" cx="367.56" cy="626.51" rx="9.31" ry="9.1"/>
        <ellipse class="cls-3" cx="342.38" cy="660.05" rx="9.31" ry="9.1"/>
        <ellipse class="cls-3" cx="329.85" cy="614.61" rx="9.31" ry="9.1"/>
        <ellipse class="cls-3" cx="304.66" cy="648.15" rx="9.31" ry="9.1"/>
      </g>
    </g>
    <path class="cls-3" d="M425.9,585.03l82.96-73.41c2.48-2.2.93-6.3-2.39-6.3h-165.92c-3.32,0-4.87,4.1-2.39,6.3l82.96,73.41c1.36,1.21,3.41,1.21,4.78,0Z"/>
  </g>
</svg>